<?xml version="1.0" encoding="UTF-8" standalone="no"?>
<svg
   xmlns:dc="http://purl.org/dc/elements/1.1/"
   xmlns:cc="http://creativecommons.org/ns#"
   xmlns:rdf="http://www.w3.org/1999/02/22-rdf-syntax-ns#"
   xmlns:svg="http://www.w3.org/2000/svg"
   xmlns="http://www.w3.org/2000/svg"
   xmlns:xlink="http://www.w3.org/1999/xlink"
   xmlns:sodipodi="http://sodipodi.sourceforge.net/DTD/sodipodi-0.dtd"
   xmlns:inkscape="http://www.inkscape.org/namespaces/inkscape"
   version="1.0"
   width="200"
   height="440"
   id="svg2484"
   sodipodi:version="0.32"
   inkscape:version="0.46"
   sodipodi:docname="non-EU-section-with-UA-01.svg"
   inkscape:output_extension="org.inkscape.output.svg.inkscape">
  <metadata
     id="metadata2524">
    <rdf:RDF>
      <cc:Work
         rdf:about="">
        <dc:format>image/svg+xml</dc:format>
        <dc:type
           rdf:resource="http://purl.org/dc/dcmitype/StillImage" />
      </cc:Work>
    </rdf:RDF>
  </metadata>
  <sodipodi:namedview
     inkscape:window-height="998"
     inkscape:window-width="1280"
     inkscape:pageshadow="2"
     inkscape:pageopacity="0.0"
     guidetolerance="10.0"
     gridtolerance="10.0"
     objecttolerance="10.0"
     borderopacity="1.0"
     bordercolor="#666666"
     pagecolor="#ffffff"
     id="base"
     showgrid="false"
     inkscape:zoom="1.2920177"
     inkscape:cx="-71.043435"
     inkscape:cy="191.59575"
     inkscape:window-x="0"
     inkscape:window-y="0"
     inkscape:current-layer="svg2484" />
  <desc
     id="desc2486">European flag</desc>
  <defs
     id="defs2488">
    <inkscape:perspective
       sodipodi:type="inkscape:persp3d"
       inkscape:vp_x="0 : 270 : 1"
       inkscape:vp_y="0 : 1000 : 0"
       inkscape:vp_z="810 : 270 : 1"
       inkscape:persp3d-origin="405 : 180 : 1"
       id="perspective2526" />
    <g
       id="s">
      <g
         id="c">
        <path
           id="t"
           d="M 0,0 L 0,1 L 0.5,1 L 0,0 z"
           transform="matrix(0.9510565,0.309017,-0.309017,0.9510565,0,-1)" />
        <use
           xlink:href="#t"
           transform="scale(-1,1)"
           id="use2493"
           x="0"
           y="0"
           width="810"
           height="540" />
      </g>
      <g
         id="a">
        <use
           xlink:href="#c"
           transform="matrix(0.309017,0.9510565,-0.9510565,0.309017,0,0)"
           id="use2496"
           x="0"
           y="0"
           width="810"
           height="540" />
        <use
           xlink:href="#c"
           transform="matrix(-0.809017,0.5877853,-0.5877853,-0.809017,0,0)"
           id="use2498"
           x="0"
           y="0"
           width="810"
           height="540" />
      </g>
      <use
         xlink:href="#a"
         transform="scale(-1,1)"
         id="use2500"
         x="0"
         y="0"
         width="810"
         height="540" />
    </g>
    <inkscape:perspective
       id="perspective2592"
       inkscape:persp3d-origin="372.04724 : 350.78739 : 1"
       inkscape:vp_z="744.09448 : 526.18109 : 1"
       inkscape:vp_y="0 : 1000 : 0"
       inkscape:vp_x="0 : 526.18109 : 1"
       sodipodi:type="inkscape:persp3d" />
    <inkscape:perspective
       id="perspective2690"
       inkscape:persp3d-origin="372.04724 : 350.78739 : 1"
       inkscape:vp_z="744.09448 : 526.18109 : 1"
       inkscape:vp_y="0 : 1000 : 0"
       inkscape:vp_x="0 : 526.18109 : 1"
       sodipodi:type="inkscape:persp3d" />
    <inkscape:perspective
       id="perspective3833"
       inkscape:persp3d-origin="372.04724 : 350.78739 : 1"
       inkscape:vp_z="744.09448 : 526.18109 : 1"
       inkscape:vp_y="0 : 1000 : 0"
       inkscape:vp_x="0 : 526.18109 : 1"
       sodipodi:type="inkscape:persp3d" />
  </defs>
  <rect
     width="200"
     height="440"
     id="rect2502"
     x="-200"
     y="0"
     style="fill:#3a75c4;fill-opacity:1"
     transform="scale(-1,1)" />
  <rect
     width="200"
     height="220"
     y="219.99998"
     id="rect3072"
     x="0"
     style="fill:#f9dd16" />
  <flowRoot
     xml:space="preserve"
     id="flowRoot4225"
     style="fill:black;stroke:none;stroke-opacity:1;stroke-width:1px;stroke-linejoin:miter;stroke-linecap:butt;fill-opacity:1;font-family:Bitstream Vera Sans;font-style:normal;font-weight:bold;font-size:24"><flowRegion
       id="flowRegion4227"><rect
         id="rect4229"
         width="131.57715"
         height="68.110519"
         x="-155.57063"
         y="-21.293993" /></flowRegion><flowPara
       id="flowPara4231" /></flowRoot>  <g
     id="g10049"
     transform="matrix(1.0357244,0,0,1.0357244,31.873007,15.395222)">
    <path
       style="fill:#f9dd16;fill-opacity:1;fill-rule:evenodd;stroke:none;stroke-width:0.5px;stroke-linecap:butt;stroke-linejoin:miter;stroke-opacity:0.155844"
       d="M 0,0 L 0,139.02222 C 0.010352828,148.42212 5.5040767,157.39403 14.727539,161.44722 L 66,184 L 117.27246,161.44722 C 126.49592,157.39403 131.98966,148.42212 132,139.02222 L 132,0 L 0,0 z"
       id="path7372"
       sodipodi:nodetypes="cccccccc" />
    <path
       sodipodi:nodetypes="cccccccc"
       id="path7710"
       d="M 2,2 L 2,138 C 2.0100391,147.19555 7.3372865,155.97242 16.28125,159.9375 L 66,182 L 115.71875,159.9375 C 124.66271,155.97242 129.98997,147.19555 130,138 L 130,2 L 2,2 z"
       style="fill:#3a75c4;fill-opacity:1;fill-rule:evenodd;stroke:none;stroke-width:0.5px;stroke-linecap:butt;stroke-linejoin:miter;stroke-opacity:0.155844" />
    <path
       id="path7306"
       d="M 66,10.1562 C 62.271882,14.386 60,19.9228 60,26 C 60.220929,39.3437 61.857838,52.6603 62,66 C 62.295944,78.4323 58.566196,90.1092 54.03125,101.5 C 52.520149,104.6477 50.88558,107.7286 49.25,110.8125 L 44.4375,109.8437 C 40.107199,108.978 37.2905,104.7678 38.15625,100.4375 C 38.913791,96.6485 42.248776,94.0174 45.96875,94 L 47.71875,94.1875 L 43.8125,61.5625 C 42.53572,47.0344 35.040464,34.291 24,26 C 22.102736,24.5752 20.092496,23.2726 18,22.125 L 18,138 L 44.75,138 C 46.750122,148.8578 52.725778,158.3169 61.125,164.8125 C 63.122878,166.1895 64.796376,168.0056 66,170.125 C 67.203624,168.0056 68.877122,166.1895 70.875,164.8125 C 79.274222,158.3169 85.249878,148.8578 87.25,138 L 114,138 L 114,22.125 C 111.9075,23.2726 109.89726,24.5752 108,26 C 96.959536,34.291 89.46428,47.0344 88.1875,61.5625 L 84.28125,94.1875 L 86.03125,94 C 89.751224,94.0174 93.086209,96.6485 93.84375,100.4375 C 94.7095,104.7678 91.892801,108.978 87.5625,109.8437 L 82.75,110.8125 C 81.11442,107.7286 79.479851,104.6477 77.96875,101.5 C 73.433804,90.1092 69.704056,78.4323 70,66 C 70.142162,52.6603 71.779071,39.3437 72,26 C 72,19.9228 69.728118,14.386 66,10.1562 z M 26,38.8125 C 31.17708,44.8884 34.65154,52.4599 35.6875,60.7812 L 38.90625,87.6875 C 34.807685,89.7279 31.700593,93.4712 30.53125,98 L 26,98 L 26,38.8125 z M 106,38.8125 L 106,98 L 101.46875,98 C 100.29941,93.4712 97.192315,89.7279 93.09375,87.6875 L 96.3125,60.7812 C 97.34846,52.4599 100.82292,44.8884 106,38.8125 z M 66,92.9062 C 68.148956,99.9349 71.105517,106.6091 74.78125,112.8125 C 71.285042,113.8746 68.242206,115.9405 66,118.7187 C 63.757794,115.9405 60.714958,113.8746 57.21875,112.8125 C 60.894483,106.6091 63.851044,99.9349 66,92.9062 z M 26,106 L 30.53125,106 C 31.959914,111.521 36.270271,115.8833 41.75,117.4062 L 45.59375,118.2812 C 44.564534,122.0123 44,125.9434 44,130 L 26,130 L 26,106 z M 101.46875,106 L 106,106 L 106,130 L 88,130 C 88,125.9434 87.435466,122.0123 86.40625,118.2812 L 90.25,117.4062 C 95.729729,115.8833 100.04009,111.521 101.46875,106 z M 53.40625,120.125 C 58.25924,120.8109 62,124.9587 62,130 L 52,130 C 52,126.5707 52.507992,123.2659 53.40625,120.125 z M 78.59375,120.125 C 79.492008,123.2659 80,126.5707 80,130 L 70,130 C 70,124.9587 73.74076,120.8109 78.59375,120.125 z M 52.90625,138 L 62,138 L 62,154.8437 C 57.586735,150.23 54.380786,144.4367 52.90625,138 z M 70,138 L 79.09375,138 C 77.619215,144.4367 74.413266,150.23 70,154.8437 L 70,138 z"
       style="fill:#f9dd16;fill-opacity:1;fill-rule:evenodd;stroke:none;stroke-width:0.5;stroke-linejoin:miter;stroke-miterlimit:4;stroke-dasharray:none;stroke-opacity:0.155844" />
  </g>
  <text
     xml:space="preserve"
     style="font-size:30.50380898px;font-style:normal;font-weight:bold;fill:#000000;fill-opacity:1;stroke:none;stroke-width:1px;stroke-linecap:butt;stroke-linejoin:miter;stroke-opacity:1;font-family:Bitstream Vera Sans"
     x="13.524619"
     y="307.54388"
     id="text3725"
     transform="scale(0.7764155,1.2879702)"><tspan
       sodipodi:role="line"
       id="tspan3727"
       x="13.524619"
       y="307.54388"
       style="font-size:152.51904297px;fill:#000000;fill-opacity:1">UA</tspan></text>
</svg>
